HIERARCHY
ROOT Hips
{
	OFFSET 51.966599 -9.077983 84.374001
	CHANNELS 6 Xposition Yposition Zposition Xrotation Yrotation Zrotation
	JOINT spine
	{
		OFFSET 0.000000 -0.342408 5.954384
		CHANNELS 3 Xrotation Yrotation Zrotation
		JOINT spine1
		{
			OFFSET 0.000000 -0.000002 8.856018
			CHANNELS 3 Xrotation Yrotation Zrotation
			JOINT spine2
			{
				OFFSET 0.000000 -0.000001 8.485672
				CHANNELS 3 Xrotation Yrotation Zrotation
				JOINT Neck
				{
					OFFSET 0.000000 -1.038704 21.786301
					CHANNELS 3 Xrotation Yrotation Zrotation
					JOINT Head
					{
						OFFSET 0.000000 -0.000001 6.582199
						CHANNELS 3 Xrotation Yrotation Zrotation
						End Site
						{
							OFFSET 0.000000 5.254357 15.932602
						}
					}
				}
				JOINT RightShoulder
				{
					OFFSET -3.573071 0.497523 9.163864
					CHANNELS 3 Xrotation Yrotation Zrotation
					JOINT RightArm
					{
						OFFSET 0.000000 -0.000002 12.019196
						CHANNELS 3 Xrotation Yrotation Zrotation
						JOINT RightArmRoll
						{
							OFFSET 0.000000 -0.000001 6.067535
							CHANNELS 3 Xrotation Yrotation Zrotation
							JOINT RightForeArm
							{
								OFFSET 0.000000 -0.000003 17.672592
								CHANNELS 3 Xrotation Yrotation Zrotation
								JOINT RightForeArmRoll
								{
									OFFSET 0.000000 -0.000001 6.808716
									CHANNELS 3 Xrotation Yrotation Zrotation
									JOINT RightHand
									{
										OFFSET 0.000000 -0.000003 13.663605
										CHANNELS 3 Xrotation Yrotation Zrotation
										End Site
										{
											OFFSET 0.000000 0.000000 0.100006
										}
									}
								}
							}
						}
					}
				}
				JOINT LeftShoulder
				{
					OFFSET 3.573071 0.497523 9.163864
					CHANNELS 3 Xrotation Yrotation Zrotation
					JOINT LeftArm
					{
						OFFSET 0.000000 -0.000002 12.019196
						CHANNELS 3 Xrotation Yrotation Zrotation
						JOINT LeftArmRoll
						{
							OFFSET 0.000000 -0.000001 6.067551
							CHANNELS 3 Xrotation Yrotation Zrotation
							JOINT LeftForeArm
							{
								OFFSET 0.000000 -0.000003 17.672607
								CHANNELS 3 Xrotation Yrotation Zrotation
								JOINT LeftForeArmRoll
								{
									OFFSET 0.000000 -0.000001 6.808716
									CHANNELS 3 Xrotation Yrotation Zrotation
									JOINT LeftHand
									{
										OFFSET 0.000000 -0.000003 13.663605
										CHANNELS 3 Xrotation Yrotation Zrotation
										End Site
										{
											OFFSET 0.000000 0.000000 0.100006
										}
									}
								}
							}
						}
					}
				}
			}
		}
	}
	JOINT RightUpLeg
	{
		OFFSET -5.277740 0.811858 -0.967796
		CHANNELS 3 Xrotation Yrotation Zrotation
		JOINT RightUpLegRoll
		{
			OFFSET 0.000000 -0.000003 16.021400
			CHANNELS 3 Xrotation Yrotation Zrotation
			JOINT RightLeg
			{
				OFFSET 0.000000 0.000003 -19.840096
				CHANNELS 3 Xrotation Yrotation Zrotation
				JOINT RightLegRoll
				{
					OFFSET 0.000000 -0.000003 19.904999
					CHANNELS 3 Xrotation Yrotation Zrotation
					JOINT RightFoot
					{
						OFFSET 0.000000 -0.000003 16.567497
						CHANNELS 3 Xrotation Yrotation Zrotation
						JOINT RightToeBase
						{
							OFFSET 0.000000 -0.000002 13.849602
							CHANNELS 3 Xrotation Yrotation Zrotation
							End Site
							{
								OFFSET 0.005871 0.773116 6.707275
							}
						}
					}
				}
			}
		}
	}
	JOINT LeftUpLeg
	{
		OFFSET 5.277740 0.811858 -0.967796
		CHANNELS 3 Xrotation Yrotation Zrotation
		JOINT LeftUpLegRoll
		{
			OFFSET 0.000000 -0.000003 16.021500
			CHANNELS 3 Xrotation Yrotation Zrotation
			JOINT LeftLeg
			{
				OFFSET 0.000000 -0.000003 19.839996
				CHANNELS 3 Xrotation Yrotation Zrotation
				JOINT LeftLegRoll
				{
					OFFSET 0.000000 -0.000004 20.089005
					CHANNELS 3 Xrotation Yrotation Zrotation
					JOINT LeftFoot
					{
						OFFSET 0.000000 -0.000003 16.383499
						CHANNELS 3 Xrotation Yrotation Zrotation
						JOINT LeftToeBase
						{
							OFFSET 0.000000 -0.000002 13.849594
							CHANNELS 3 Xrotation Yrotation Zrotation
							End Site
							{
								OFFSET -0.026310 0.773116 6.707275
							}
						}
					}
				}
			}
		}
	}
}
MOTION
Frames: 9
Frame Time: 0.041667
49.714306 -7.357102 84.255898 -3.644962 2.018379 4.542840 -2.452829 0.166651 0.047079 -0.903003 0.326446 0.100276 0.742085 0.327615 0.096431 26.113259 11.471962 -10.458438 2.973347 -33.004430 -6.856774 -10.931170 -0.581303 -7.711148 -495.580167 -175.560437 -454.659137 0.000000 0.000000 0.000000 77.204053 2.300440 -4.523783 -0.000000 -0.000001 -3.000002 -5.000142 -7.999921 0.000010 -78.844323 83.909796 83.838926 -91.773775 112.627538 85.049727 -0.000000 0.000005 0.000001 -0.027759 -3.639170 1.990857 -0.000003 -0.000014 3.011600 -5.000162 7.999949 -0.000010 0.005726 175.756996 0.325735 -179.999991 0.000005 -1.054999 173.821512 -2.252858 -0.329819 0.000004 -0.000004 0.069718 69.329999 6.875721 2.134528 25.456962 -7.355617 0.000001 -5.577336 174.806561 -1.886470 -0.000005 -0.000005 -1.030370 -14.381030 2.357296 0.720067 0.000001 0.000005 -0.252758 71.400441 -6.823610 -2.152172 25.456950 7.355614 -0.000000 
49.724411 -7.364123 84.255997 -3.628811 2.017447 4.522479 -2.457467 0.166461 0.046522 -0.912271 0.327819 0.099021 0.732814 0.328971 0.095137 26.127620 11.433880 -10.424035 2.993216 -32.927399 -6.823451 -10.971455 -0.572726 -7.785639 -495.799662 -175.347226 -454.679245 0.000001 0.000001 -0.000001 77.044220 2.306306 -4.521237 -0.000001 -0.000001 -3.000000 -5.000141 -7.999916 0.000011 -78.685726 83.942977 83.668909 -91.825746 112.583490 85.076474 -0.000001 0.000004 0.000003 -0.027762 -3.639171 1.990858 -0.000004 -0.000014 3.011601 -5.000163 7.999950 -0.000010 -0.003718 175.763006 0.324572 -179.999991 0.000005 -1.055000 173.821539 -2.247887 -0.330278 0.000004 -0.000004 0.069854 69.330218 6.875729 2.134316 25.456957 -7.355616 0.000001 -5.582282 174.813569 -1.882469 -0.000004 -0.000004 -1.030259 -14.379141 2.358556 0.720182 0.000001 0.000005 -0.252794 71.402033 -6.823589 -2.152169 25.456952 7.355613 -0.000000 
49.738503 -7.371341 84.256493 -3.613360 2.016354 4.500915 -2.461979 0.166281 0.045968 -0.921282 0.329223 0.097768 0.723805 0.330359 0.093843 26.142759 11.393198 -10.389484 3.011940 -32.848398 -6.790534 -11.011246 -0.565879 -7.859348 -496.019703 -175.131965 -454.701157 0.000000 -0.000000 0.000000 76.883020 2.312212 -4.518701 -0.000003 -0.000001 -2.999999 -5.000141 -7.999919 0.000010 -78.516849 83.976090 83.488442 -91.875579 112.538828 85.101589 0.000002 0.000004 0.000002 -0.027763 -3.639171 1.990856 -0.000002 -0.000013 3.011599 -5.000162 7.999949 -0.000013 -0.012330 175.769003 0.323674 -179.999991 0.000005 -1.054999 173.821689 -2.242918 -0.329735 0.000004 -0.000005 0.069991 69.330231 6.875765 2.134121 25.456960 -7.355617 0.000000 -5.585720 174.822558 -1.878742 -0.000004 -0.000004 -1.030160 -14.376553 2.359930 0.720289 0.000001 0.000005 -0.252814 71.403747 -6.823598 -2.152065 25.456950 7.355615 -0.000001 
49.737507 -7.384092 84.258003 -3.598668 2.015099 4.478017 -2.466320 0.166166 0.045415 -0.929976 0.330723 0.096517 0.715111 0.331842 0.092552 26.158979 11.348894 -10.354868 3.027714 -32.766367 -6.758774 -11.050537 -0.561085 -7.932346 -496.240400 -174.914670 -454.724680 0.000000 0.000001 0.000001 76.720332 2.318156 -4.516050 -0.000002 -0.000002 -3.000000 -5.000140 -7.999921 0.000009 -78.331820 84.008957 83.291630 -91.921594 112.493427 85.123773 0.000001 0.000004 0.000002 -0.027757 -3.639170 1.990858 -0.000004 -0.000013 3.011600 -5.000165 7.999949 -0.000011 -0.020061 175.775000 0.323032 -179.999991 0.000005 -1.055000 173.821880 -2.236942 -0.330078 0.000004 -0.000004 0.070126 69.330231 6.875764 2.133920 25.456959 -7.355617 0.000000 -5.587467 174.830549 -1.875080 -0.000004 -0.000004 -1.030080 -14.373064 2.361449 0.720378 0.000002 0.000005 -0.252809 71.405646 -6.823540 -2.152039 25.456953 7.355614 -0.000001 
49.746609 -7.387304 84.256393 -3.584818 2.013683 4.453670 -2.470480 0.166170 0.044864 -0.938290 0.332384 0.095269 0.706798 0.333488 0.091265 26.176814 11.300016 -10.320360 3.038751 -32.680546 -6.728888 -11.089235 -0.558668 -8.004744 -496.461862 -174.695407 -454.750115 -0.000000 0.000000 0.000000 76.556278 2.324149 -4.513407 -0.000003 -0.000002 -2.999997 -5.000141 -7.999921 0.000009 -78.122980 84.041400 83.070714 -91.962097 112.447071 85.141689 0.000001 0.000004 0.000003 -0.027762 -3.639171 1.990857 -0.000003 -0.000014 3.011599 -5.000165 7.999950 -0.000012 -0.026872 175.781994 0.322633 -179.999991 0.000005 -1.055000 173.822017 -2.231972 -0.330546 0.000004 -0.000004 0.070258 69.330020 6.875790 2.133739 25.456959 -7.355618 0.000000 -5.587328 174.839510 -1.871757 -0.000004 -0.000004 -1.030010 -14.368679 2.363162 0.720449 0.000001 0.000005 -0.252777 71.407360 -6.823549 -2.152034 25.456952 7.355613 0.000001 
49.750607 -7.393725 84.258690 -3.571893 2.012104 4.427775 -2.474419 0.166348 0.044311 -0.946163 0.334276 0.094026 0.698923 0.335362 0.089984 26.196682 11.245611 -10.286094 3.043312 -32.589991 -6.701606 -11.127538 -0.558943 -8.076618 -496.684253 -174.474191 -454.777491 0.000000 0.000000 0.000000 76.390939 2.330177 -4.510709 -0.000006 -0.000001 -3.000001 -5.000142 -7.999919 0.000008 -77.883404 84.073208 82.818721 -91.995121 112.399608 85.153737 0.000002 0.000005 0.000001 -0.027758 -3.639170 1.990857 -0.000005 -0.000014 3.011600 -5.000164 7.999950 -0.000011 -0.032720 175.789002 0.322465 -179.999991 0.000005 -1.054999 173.822058 -2.227003 -0.330007 0.000004 -0.000004 0.070387 69.329828 6.875817 2.133455 25.456962 -7.355616 0.000001 -5.585099 174.847433 -1.868661 -0.000004 -0.000005 -1.029959 -14.363295 2.365107 0.720505 0.000001 0.000005 -0.252710 71.409040 -6.823496 -2.152024 25.456953 7.355613 0.000001 
49.760307 -7.401931 84.261398 -3.559964 2.010364 4.400186 -2.478100 0.166757 0.043758 -0.953536 0.336459 0.092789 0.691550 0.337532 0.088714 26.219018 11.184844 -10.252265 3.039593 -32.493638 -6.677617 -11.165344 -0.562234 -8.148062 -496.907628 -174.251103 -454.806779 -0.000001 -0.000002 0.000001 76.224221 2.336249 -4.507971 -0.000003 -0.000002 -2.999999 -5.000143 -7.999921 0.000010 -77.605149 84.104176 82.527632 -92.019683 112.350827 85.159372 0.000000 0.000004 0.000003 -0.027758 -3.639170 1.990859 -0.000004 -0.000013 3.011602 -5.000162 7.999949 -0.000012 -0.037565 175.795996 0.322517 -179.999991 0.000005 -1.054003 173.821921 -2.222030 -0.330472 0.000004 -0.000004 0.070511 69.329623 6.875841 2.133271 25.456962 -7.355617 0.000001 -5.580570 174.856353 -1.866089 -0.000005 -0.000005 -1.029929 -14.356615 2.367329 0.720526 0.000001 0.000005 -0.252601 71.410324 -6.823478 -2.152043 25.456950 7.355616 -0.000001 
49.780308 -7.405581 84.262398 -3.549103 2.008461 4.370806 -2.481513 0.167453 0.043203 -0.960349 0.339006 0.091562 0.684739 0.340063 0.087455 26.244228 11.116594 -10.218912 3.025867 -32.390629 -6.657624 -11.202762 -0.568857 -8.219176 -497.131986 -174.026171 -454.838061 -0.000001 -0.000002 -0.000000 76.056233 2.342364 -4.505189 -0.000002 -0.000001 -2.999997 -5.000141 -7.999919 0.000009 -77.282108 84.134079 82.191293 -92.033766 112.300495 85.156934 0.000002 0.000004 0.000003 -0.027760 -3.639171 1.990859 -0.000001 -0.000013 3.011599 -5.000165 7.999949 -0.000011 -0.041364 175.803004 0.322779 -179.999991 0.000005 -1.054003 173.821512 -2.217058 -0.329950 0.000004 -0.000004 0.070630 69.329412 6.875867 2.133092 25.456960 -7.355616 0.000001 -5.573556 174.865260 -1.864008 -0.000004 -0.000004 -1.029920 -14.348733 2.369883 0.720530 0.000001 0.000005 -0.252447 71.411267 -6.823432 -2.151978 25.456953 7.355612 0.000000 
49.785007 -7.418173 84.261894 -3.539380 2.006376 4.339515 -2.484610 0.168490 0.042643 -0.966537 0.341977 0.090343 0.678549 0.343020 0.086211 26.272756 11.040009 -10.186211 3.000392 -32.280205 -6.642255 -11.239781 -0.579133 -8.290049 -497.357491 -173.799450 -454.871447 -0.000001 -0.000001 -0.000000 75.887063 2.348502 -4.502360 -0.000005 -0.000002 -2.999999 -5.000141 -7.999921 0.000009 -76.905109 84.162615 81.800429 -92.035617 112.248476 85.145029 0.000001 0.000004 0.000003 -0.027763 -3.639170 1.990857 -0.000006 -0.000014 3.011599 -5.000163 7.999950 -0.000012 -0.044078 175.810995 0.323237 -179.999991 0.000005 -1.054002 173.820801 -2.212084 -0.330437 0.000004 -0.000004 0.070743 69.329316 6.875861 2.132895 25.456962 -7.355617 0.000000 -5.563867 174.873142 -1.862419 -0.000005 -0.000004 -1.029930 -14.339355 2.372811 0.720498 0.000001 0.000005 -0.252242 71.411690 -6.823429 -2.151952 25.456950 7.355615 -0.000002 
